# xmcd
#
# Track frame offsets:
#	150
#	17960
#	33590
#	48447
#	65030
#	79347
#	95057
#	108852
#	121217
#	135550
#	166715
#	180590
#	194707
#	210530
#	227790
#	242690
#
# Disc length: 3423 seconds
#
# Revision: 2
# Processed by: cddbd v1.5.2PL0 Copyright (c) Steve Scherf et al.
# Submitted via: EasyCDDAExtractor 15.2.5.1
#
DISCID=df0d5d10
DTITLE=謝采雲 - 中國小調(系列一)台灣版
DYEAR=1980
DGENRE=Alternative
TTITLE0=戲鳳
TTITLE1=知道不知道
TTITLE2=蒙古牧歌
TTITLE3=情人穚
TTITLE4=郊道
TTITLE5=採紅菱
TTITLE6=路邊野花不要採
TTITLE7=回娘家
TTITLE8=茶葉青
TTITLE9=王昭君
TTITLE10=天涯歌女
TTITLE11=傻瓜與野丫頭
TTITLE12=月下對口
TTITLE13=蝴蝶翩翩燕子飛
TTITLE14=黄昏小唱
TTITLE15=挑花红
EXTD=
EXTT0=
EXTT1=
EXTT2=
EXTT3=
EXTT4=
EXTT5=
EXTT6=
EXTT7=
EXTT8=
EXTT9=
EXTT10=
EXTT11=
EXTT12=
EXTT13=
EXTT14=
EXTT15=
PLAYORDER=
